<svg width="27" height="36" viewBox="0 0 27 36" fill="none" xmlns="http://www.w3.org/2000/svg">
<path fill-rule="evenodd" clip-rule="evenodd" d="M6.74999 28.9393C8.80662 31.4823 11.0645 33.8437 13.5 36C15.9355 33.8437 18.1933 31.4823 20.25 28.9393C22.1484 26.5897 24.2661 23.531 25.615 20.2615C26.4573 18.2165 26.9999 16.0895 26.9999 14.0035C27.011 10.2886 25.5886 6.72608 23.0504 4.1069C19.1897 0.0990174 13.3806 -1.10217 8.3334 1.06583C3.28618 3.23383 -0.00277373 8.33743 1.75527e-06 14.0035C1.75527e-06 19.4294 3.66364 25.119 6.74999 28.9393Z" fill="#278FFF"/>
<circle cx="13.5" cy="13.5" r="11.25" fill="white"/>
<path d="M9.2728 10.0895C9.22631 10.0622 9.20977 10.003 9.23539 9.95565L10.3502 7.89324C10.352 7.89004 10.3533 7.88727 10.3547 7.88393C10.3841 7.81591 10.7569 7.00011 11.7402 7.00011H15.813C15.8148 7.00011 15.8163 7.00007 15.818 7.00003C15.8517 6.99936 16.2403 7.0039 16.5166 7.55621L17.1758 8.79999C17.2025 8.85031 17.2657 8.86823 17.3148 8.83938L17.9911 8.44203C18.0779 8.39102 18.1772 8.48582 18.1302 8.57489L16.8395 11.0229C16.823 11.0542 16.7912 11.0744 16.7558 11.0761L13.9405 11.2122C13.8355 11.2173 13.7948 11.0778 13.886 11.0255L14.6736 10.5744C14.7217 10.5469 14.7382 10.4856 14.7105 10.4376L13.7088 8.70131C13.6696 8.63341 13.5711 8.63494 13.534 8.70403L11.9989 11.5669C11.9721 11.6168 11.9091 11.6345 11.8602 11.6059L9.2728 10.0895Z" fill="#278FFF"/>
<path d="M18.5328 10.9426C18.5328 10.9432 18.533 10.9438 18.5333 10.9443L19.7369 13.0693C19.7387 13.0725 19.7403 13.075 19.7423 13.078C19.7841 13.1387 20.2746 13.885 19.7829 14.764L17.7321 18.4087C17.7312 18.4104 17.7305 18.4118 17.7296 18.4134C17.713 18.4447 17.5146 18.7924 16.9142 18.7579L15.5481 18.7242C15.4926 18.7229 15.4466 18.767 15.4456 18.8225L15.4318 19.6402C15.43 19.7415 15.296 19.7763 15.2452 19.6886L13.8631 17.3025C13.8461 17.2733 13.8451 17.2375 13.8603 17.2073L15.1604 14.627C15.2084 14.5317 15.3523 14.5678 15.3497 14.6745L15.327 15.5919C15.3256 15.6486 15.3716 15.6951 15.4283 15.6943L17.3802 15.669C17.4565 15.668 17.5036 15.5855 17.4657 15.5193L15.8426 12.682C15.8156 12.6349 15.8311 12.5749 15.8775 12.5468L18.5274 10.9395C18.5298 10.9381 18.5328 10.9398 18.5328 10.9426V10.9426Z" fill="#278FFF"/>
<path d="M12.9181 18.8661H10.5386C10.5352 18.8661 10.5323 18.8662 10.529 18.8665C10.4589 18.8721 9.58827 18.9221 9.10998 18.0283L7.1386 14.3403C7.13773 14.3386 7.13696 14.3373 7.13604 14.3357C7.11858 14.3049 6.92898 13.9458 7.26736 13.4351L7.99746 12.2256C8.02546 12.1793 8.01143 12.119 7.96582 12.0898L7.28363 11.6525C7.19986 11.5988 7.23739 11.469 7.3369 11.4683L10.0283 11.4494C10.0637 11.4491 10.0966 11.4677 10.1148 11.4981L11.5986 13.9821C11.6529 14.0731 11.5471 14.175 11.4582 14.1172L10.71 13.6307C10.6615 13.5991 10.5963 13.6153 10.5681 13.6659L9.59007 15.4242C9.553 15.4909 9.60119 15.5728 9.67746 15.5728H12.8463C12.9018 15.5728 12.9467 15.618 12.9463 15.6735L12.9253 18.8589C12.9253 18.8629 12.9221 18.8661 12.9181 18.8661V18.8661Z" fill="#278FFF"/>
</svg>
