<svg width="27" height="36" viewBox="0 0 27 36" fill="none" xmlns="http://www.w3.org/2000/svg">
<path fill-rule="evenodd" clip-rule="evenodd" d="M6.74999 28.9393C8.80662 31.4823 11.0645 33.8437 13.5 36C15.9355 33.8437 18.1933 31.4823 20.25 28.9393C22.1484 26.5897 24.2661 23.531 25.615 20.2615C26.4573 18.2165 26.9999 16.0895 26.9999 14.0035C27.011 10.2886 25.5886 6.72608 23.0504 4.1069C19.1897 0.0990174 13.3806 -1.10217 8.3334 1.06583C3.28618 3.23383 -0.00277373 8.33743 1.75527e-06 14.0035C1.75527e-06 19.4294 3.66364 25.119 6.74999 28.9393Z" fill="#278FFF"/>
<circle cx="13.5" cy="13.5" r="11.75" fill="white" stroke="#2D3D5C"/>
<g clip-path="url(#clip0_1051_8959)">
<path d="M14.9694 21.2426L15.7083 20.527V20.0057L14.9434 19.7583L14.9694 21.2426Z" fill="#2D3D5C" stroke="#2D3D5C" stroke-width="0.3" stroke-linecap="round" stroke-linejoin="round"/>
<path d="M15.7079 19.9437V14.3423L14.8561 14.5632L14.8213 16.286L15.7079 19.9437Z" fill="#2D3D5C" stroke="#2D3D5C" stroke-width="0.3" stroke-linecap="round" stroke-linejoin="round"/>
<path d="M12.1967 19.0866L13.3614 17.9027L13.1963 17.567L13.9003 16.3301V14.1213L11.2405 13.3526L12 12.5L10.9276 10.3841L8.49386 8.16646L6.73806 7.70703L5.75586 8.75841L9.11968 9.74793L11.0059 13.6089L9.70205 12.3366L8.47647 14.2273L12.2314 15.367L12.1967 19.0866Z" fill="#2D3D5C" stroke="#2D3D5C" stroke-width="0.3" stroke-linecap="round" stroke-linejoin="round"/>
<path d="M10.4492 5.17126L13.1264 4.63232L16.4467 5.63952C16.4467 5.63952 17.1682 5.88691 17.4202 6.8941L17.8288 7.98965L19.1065 7.50372C19.1065 7.50372 19.3325 7.44188 19.2803 7.74227C19.2282 8.04266 17.7679 10.6667 17.7679 10.6667L16.4815 11.5237L18.1069 8.82899L16.9335 9.18239L16.1599 7.43304C16.1599 7.43304 15.8904 6.72624 15.3515 6.55837L10.9447 5.25078C10.9447 5.25078 10.5535 5.13592 10.4492 5.17126Z" fill="#2D3D5C" stroke="#2D3D5C" stroke-width="0.3" stroke-linecap="round" stroke-linejoin="round"/>
<path d="M15.3427 12.9286L19.6366 11.2588L21.1229 14.6426C21.1229 14.6426 21.8443 15.8442 20.8013 17.2666L18.9673 19.9437L17.1072 20.4119C17.1072 20.4119 17.3332 20.2882 17.4201 20.1469L19.5236 16.9221C19.5236 16.9221 20.2971 16.1092 19.6974 14.8812L18.324 11.9479L15.334 12.9286H15.3427Z" fill="#2D3D5C"/>
<path d="M8.1543 7.85728L9.43203 5.79871C9.43203 5.79871 9.83186 4.9152 10.9444 5.25093L15.3948 6.59386C15.3948 6.59386 15.8468 6.69988 16.1597 7.45087L16.9333 9.20021L18.1067 8.84681L16.4813 11.5415L12.8915 10.6403L14.2474 10.2428L13.0045 7.62757L11.1704 10.605L8.16299 7.86612L8.1543 7.85728Z" fill="#278FFF" stroke="#2D3D5C" stroke-width="0.3" stroke-linecap="round" stroke-linejoin="round"/>
<path d="M18.3411 11.957L19.6536 14.7666C19.6536 14.7666 20.262 15.8268 19.6971 16.6926L17.4458 20.156C17.4458 20.156 17.2372 20.5271 16.5592 20.2797L14.9599 19.7584L14.9338 21.1985L13.2041 17.5673L14.873 14.6429L14.8295 16.2951L17.2546 16.993L15.351 12.9377L18.3411 11.957Z" fill="#278FFF" stroke="#2D3D5C" stroke-width="0.3" stroke-linecap="round" stroke-linejoin="round"/>
<path d="M12.1967 19.0865L9.59775 18.2913C9.59775 18.2913 8.58947 18.1058 8.05056 16.8866L5.90362 12.0449C5.90362 12.0449 5.66025 11.559 6.0427 11.0643L6.89452 9.85385L5.75586 8.7583L9.11968 9.74783L10.9972 13.6088L9.69336 12.3277L8.47647 14.2272L12.2227 15.3581L12.188 19.0777L12.1967 19.0865Z" fill="#278FFF" stroke="#2D3D5C" stroke-width="0.3" stroke-linecap="round" stroke-linejoin="round"/>
</g>
<defs>
<clipPath id="clip0_1051_8959">
<rect width="15.75" height="16.875" fill="white" transform="translate(5.625 4.5)"/>
</clipPath>
</defs>
</svg>
