<svg width="27" height="36" viewBox="0 0 27 36" fill="none" xmlns="http://www.w3.org/2000/svg">
<g clip-path="url(#clip0_1051_8958)">
<path fill-rule="evenodd" clip-rule="evenodd" d="M6.74999 28.9393C8.80662 31.4823 11.0645 33.8437 13.5 36C15.9355 33.8437 18.1933 31.4823 20.25 28.9393C22.1484 26.5897 24.2661 23.531 25.615 20.2615C26.4573 18.2165 26.9999 16.0895 26.9999 14.0035C27.011 10.2886 25.5886 6.72608 23.0504 4.1069C19.1897 0.0990174 13.3806 -1.10217 8.3334 1.06583C3.28618 3.23383 -0.00277373 8.33743 1.75527e-06 14.0035C1.75527e-06 19.4294 3.66364 25.119 6.74999 28.9393Z" fill="#FF6C7E"/>
<circle cx="13.5" cy="13.5" r="11.75" fill="white" stroke="#2D3D5C"/>
<g clip-path="url(#clip1_1051_8958)">
<path d="M8.33203 9.58252L9.03917 21.4092C9.03917 21.9248 10.9785 22.8903 13.3785 22.8903C15.7785 22.8903 17.7177 21.9248 17.7177 21.4092L18.4249 9.58252H8.33203Z" fill="#FF6C7E" stroke="#2D3D5C" stroke-width="0.3" stroke-miterlimit="10"/>
<path d="M8.11816 7.4873V9.47304C8.11816 10.4495 10.4967 11.2394 13.4217 11.2394C16.3467 11.2394 18.7253 10.4495 18.7253 9.47304V7.4873H8.11816Z" fill="#FF6C7E" stroke="#2D3D5C" stroke-width="0.3" stroke-miterlimit="10"/>
<path d="M18.6824 7.509C18.6824 8.48541 16.3146 9.40697 13.4003 9.40697C10.486 9.40697 8.10742 8.48541 8.10742 7.509C8.10742 6.53258 10.4753 5.74268 13.4003 5.74268C16.3253 5.74268 18.6931 6.53258 18.6931 7.509H18.6824Z" fill="#2D3D5C" stroke="#2D3D5C" stroke-width="0.2" stroke-miterlimit="10"/>
<path d="M8.94238 8.3317C8.94238 8.3317 10.9674 12.8627 18.2531 12.4897L18.4031 10.0432C18.4031 10.0432 18.6924 9.76889 18.6924 9.58239V7.57471L8.94238 8.3317Z" fill="#2D3D5C"/>
<path d="M9.41485 4.72217L8.60057 6.67499C8.20414 7.62946 10.2184 9.36287 13.1006 10.5258C15.9827 11.6887 18.6399 11.8642 19.0363 10.9098L19.8506 8.95695L9.41485 4.72217Z" fill="#2D3D5C" stroke="#2D3D5C" stroke-width="0.2" stroke-miterlimit="10"/>
<path d="M12.8537 10.8549C10.4001 9.90047 8.68581 8.45231 8.38581 6.67502C8.36438 6.56531 8.46081 6.47754 8.57867 6.47754C8.69653 6.47754 8.77153 6.56531 8.80367 6.67502C9.28581 8.30968 10.6144 9.31901 13.0144 10.4271C14.9537 11.1621 17.6537 11.6339 18.8537 10.8549C18.9501 10.8001 19.0787 10.822 19.1537 10.9098C19.2287 10.9976 19.2072 11.1182 19.1215 11.1841C17.8037 12.0398 15.0715 11.7875 12.8537 10.8549Z" fill="#FF6C7E" stroke="#2D3D5C" stroke-width="0.2" stroke-miterlimit="10"/>
<path d="M19.8391 8.97915C19.4427 9.93362 16.732 9.9007 13.8499 8.72682C10.9677 7.55293 9.007 5.69884 9.40343 4.74437C9.79986 3.7899 12.457 3.95446 15.3391 5.12835C18.2213 6.30224 20.2356 8.02468 19.8391 8.97915Z" fill="#FF6C7E" stroke="#2D3D5C" stroke-width="0.2" stroke-miterlimit="10"/>
<path d="M17.9003 7.9042H19.5074C19.5074 7.9042 19.1753 7.16915 17.6217 6.26953L17.1074 7.6409L17.9003 7.9042Z" fill="#2D3D5C" stroke="#2D3D5C" stroke-width="0.2" stroke-miterlimit="10"/>
<path d="M12.3282 5.92907L13.8496 4.60159C13.8496 4.60159 12.8961 4.30537 12.5746 4.27246L11.9854 5.43538L12.0818 5.77548L12.3282 5.92907Z" fill="#2D3D5C" stroke="#2D3D5C" stroke-width="0.2" stroke-miterlimit="10"/>
<path d="M11.5469 5.54521L12.5219 3.14258L18.8112 5.44647L17.9004 7.90396L17.1183 7.64066L17.7826 5.8524L12.9826 4.11899L12.2969 5.87434L11.5469 5.54521Z" fill="#FF6C7E" stroke="#2D3D5C" stroke-width="0.2" stroke-miterlimit="10"/>
<path d="M15.2965 12.4128C15.7036 12.4457 16.1 12.4677 16.5393 12.4677L15.9822 12.2702L16.1107 12.2263L15.2965 11.8533L14.8465 11.8753L12.8 11.1731C12.8 11.1731 11.9215 11.4474 9.51074 10.6685C9.51074 10.6685 11.4715 12.0837 14.9965 12.4019H15.1143L15.2857 12.4128H15.2965Z" fill="#2D3D5C"/>
<path d="M10.593 20.7507C10.2394 20.7507 9.9501 20.4765 9.92867 20.1144L9.46795 13.0711C9.44653 12.6981 9.7251 12.3689 10.0894 12.347C10.4644 12.336 10.7751 12.6103 10.7965 12.9833L11.2572 20.0266C11.2787 20.3997 11.0001 20.7288 10.6358 20.7507C10.6251 20.7507 10.6037 20.7507 10.593 20.7507Z" fill="#E84F69" stroke="#2D3D5C" stroke-width="0.3" stroke-miterlimit="10"/>
<path d="M16.1752 21.1022C16.1752 21.1022 16.1431 21.1022 16.1324 21.1022C15.7681 21.0802 15.4895 20.7511 15.5109 20.3781L15.9716 13.3348C15.9931 12.9618 16.3038 12.6765 16.6788 12.6985C17.0431 12.7204 17.3216 13.0495 17.3002 13.4225L16.8395 20.4659C16.8181 20.8279 16.5181 21.1022 16.1752 21.1022Z" fill="#E84F69" stroke="#2D3D5C" stroke-width="0.3" stroke-miterlimit="10"/>
<path d="M13.5608 21.8263C13.1965 21.8263 12.8965 21.5192 12.8965 21.1462V13.7627C12.8965 13.3897 13.1965 13.0825 13.5608 13.0825C13.9251 13.0825 14.2251 13.3897 14.2251 13.7627V21.1462C14.2251 21.5192 13.9251 21.8263 13.5608 21.8263Z" fill="#E84F69" stroke="#2D3D5C" stroke-width="0.3" stroke-miterlimit="10"/>
</g>
</g>
<defs>
<clipPath id="clip0_1051_8958">
<rect width="27" height="36" fill="white"/>
</clipPath>
<clipPath id="clip1_1051_8958">
<rect width="12" height="20" fill="white" transform="translate(8 3)"/>
</clipPath>
</defs>
</svg>
