<svg width="27" height="36" viewBox="0 0 27 36" fill="none" xmlns="http://www.w3.org/2000/svg">
<g clip-path="url(#clip0_1051_11843)">
<path fill-rule="evenodd" clip-rule="evenodd" d="M6.74999 28.9393C8.80662 31.4823 11.0645 33.8437 13.5 36C15.9355 33.8437 18.1933 31.4823 20.25 28.9393C22.1484 26.5897 24.2661 23.531 25.615 20.2615C26.4573 18.2165 26.9999 16.0895 26.9999 14.0035C27.011 10.2886 25.5886 6.72608 23.0504 4.1069C19.1897 0.0990174 13.3806 -1.10217 8.3334 1.06583C3.28618 3.23383 -0.00277373 8.33743 1.75527e-06 14.0035C1.75527e-06 19.4294 3.66364 25.119 6.74999 28.9393Z" fill="#FF6C7E"/>
<circle cx="13.5" cy="13.5" r="11.25" fill="white"/>
<path fill-rule="evenodd" clip-rule="evenodd" d="M12.3084 8.86881C12.6244 8.56406 13.0531 8.39286 13.5 8.39286C13.9469 8.39286 14.3756 8.56406 14.6916 8.86881C14.8913 9.06136 15.0357 9.29726 15.1149 9.55357H11.8851C11.9643 9.29726 12.1087 9.06136 12.3084 8.86881ZM10.4076 9.55357C10.5091 8.92512 10.8148 8.33925 11.287 7.88391C11.8739 7.31795 12.67 7 13.5 7C14.33 7 15.1261 7.31795 15.713 7.88391C16.1852 8.33925 16.491 8.92512 16.5924 9.55357H19.2778C19.6766 9.55357 20 9.86538 20 10.25C20 10.6346 19.6766 10.9464 19.2778 10.9464H18.3148V18.6071C18.3148 18.9765 18.1627 19.3309 17.8918 19.5921C17.6209 19.8533 17.2534 20 16.8704 20H10.1296C9.74653 20 9.37913 19.8533 9.10825 19.5921C8.83737 19.3309 8.68519 18.9765 8.68519 18.6071V10.9464H7.72222C7.32335 10.9464 7 10.6346 7 10.25C7 9.86538 7.32335 9.55357 7.72222 9.55357H10.4076ZM11.5741 12.4567C11.9065 12.4567 12.1759 12.7166 12.1759 13.0371V16.7528C12.1759 17.0732 11.9065 17.3331 11.5741 17.3331C11.2417 17.3331 10.9722 17.0732 10.9722 16.7528V13.0371C10.9722 12.7166 11.2417 12.4567 11.5741 12.4567ZM16.0278 13.0371C16.0278 12.7166 15.7583 12.4567 15.4259 12.4567C15.0935 12.4567 14.8241 12.7166 14.8241 13.0371V16.7528C14.8241 17.0732 15.0935 17.3331 15.4259 17.3331C15.7583 17.3331 16.0278 17.0732 16.0278 16.7528V13.0371Z" fill="#FF6C7E"/>
</g>
<defs>
<clipPath id="clip0_1051_11843">
<rect width="27" height="36" fill="white"/>
</clipPath>
</defs>
</svg>
